<svg width="81" height="79" viewBox="0 0 81 79" fill="none" xmlns="http://www.w3.org/2000/svg">
<g clip-path="url(#clip0_66_1177)">
<path d="M30.4827 6.7806C31.6085 6.78738 32.7344 6.7806 33.8602 6.78399C37.1055 7.00447 40.4627 7.52345 43.2841 9.24659C44.9017 10.2404 46.2072 11.6447 47.5467 12.9744C49.1304 14.589 50.5886 16.3257 51.945 18.1337C53.5219 20.3012 54.9936 22.5874 55.916 25.1178C56.2517 26.0879 56.5705 27.092 56.5637 28.1265C56.5637 36.1215 56.5637 44.1131 56.5637 52.1081C56.6485 54.089 55.7125 56.0055 54.3459 57.3996C53.9661 57.8134 53.4744 58.1018 53.0776 58.4986C53.9288 58.3833 54.7528 58.0984 55.5565 57.7999C57.832 56.918 59.9514 55.5476 61.5249 53.665C61.8369 53.3021 62.0675 52.8781 62.237 52.4303C62.7253 51.1855 63.0102 49.8694 63.2679 48.56C64.0004 44.6016 64.3327 40.5786 64.6345 36.5693C64.6142 35.7314 64.8007 34.9072 64.7803 34.0694C64.916 33.0212 64.8041 31.9561 64.9669 30.9114C65.0482 29.9752 64.9058 29.0186 65.15 28.1028C65.2517 28.6184 65.3263 29.1374 65.4416 29.6496C66.1877 33.1162 66.7336 36.6303 67.0185 40.1648C67.188 42.2645 67.1507 44.3777 67.1134 46.4807C67.0829 47.4441 66.9269 48.4006 66.8048 49.3572C66.4623 51.2974 65.9265 53.2614 64.8075 54.9099C64.5328 55.3373 64.1462 55.6833 63.8851 56.1242C64.3463 55.9071 64.7668 55.6086 65.1974 55.3407C68.9514 52.9323 72.3391 49.8694 74.8011 46.1314C76.951 42.9157 78.3278 39.1743 78.6975 35.3176C78.728 34.1982 78.9009 33.0789 78.7551 31.9595C78.7178 31.2438 78.7551 30.5281 78.7178 29.8158C78.4194 26.3288 77.4495 22.9028 75.8964 19.7686C75.0554 18.1167 74.055 16.5225 72.7461 15.1996C72.7122 15.5218 72.7935 15.9085 72.5358 16.1595C72.1967 16.5835 71.5999 16.4784 71.1285 16.4478C69.8738 16.2172 68.6971 15.6846 67.5475 15.1453C65.9774 14.3685 64.465 13.4696 63.0678 12.4147C62.549 12.0145 61.9759 11.5905 61.7826 10.9324C61.162 9.02272 60.4702 7.13676 59.6191 5.31864C59.2528 4.57918 58.8798 3.82276 58.3135 3.21559C57.91 2.7848 57.3504 2.56432 56.835 2.30314C54.156 1.01417 51.2024 0.386649 48.2555 0.108504C47.5128 -0.010217 46.7566 0.0237032 46.0106 0.0101351C44.3252 0.0338792 42.6296 -0.0678812 40.9578 0.166168C33.7008 0.912411 26.705 3.63281 20.6959 7.74393C20.5874 7.86265 20.272 7.93388 20.4009 8.14419C23.714 7.41151 27.0848 6.93663 30.4725 6.78738L30.4827 6.7806Z" fill="#CE1141"/>
<path d="M30.8219 20.9728C37.0852 20.9592 43.3486 20.9897 49.612 20.9558C49.1711 20.4165 48.6387 19.9619 48.1165 19.4972C47.2213 18.6255 46.2887 17.8012 45.329 17.0007C44.0268 15.9492 42.6772 14.9214 41.1512 14.2125C40.5849 13.9683 40.0016 13.7342 39.381 13.6698C37.9466 13.6698 36.5325 14.0022 35.1964 14.5076C32.2733 15.627 29.6723 17.4247 27.2205 19.3446C23.8938 22.0107 20.8452 25.0127 18.034 28.2113C17.9628 27.7534 18.2544 27.3531 18.4036 26.9393C20.8757 21.3493 25.2503 16.6785 30.5133 13.6087C32.358 12.5165 34.3215 11.6447 36.3256 10.8951C35.4134 10.6136 34.447 10.5932 33.511 10.427C32.6158 10.3286 31.7205 10.2947 30.8286 10.1896C29.462 10.1726 28.0818 10.0946 26.722 10.2574C22.1813 10.5152 17.6203 11.7499 13.7917 14.2566C12.3607 15.0707 10.9839 15.9865 9.72239 17.0448C9.04417 17.5604 8.46768 18.1913 7.8132 18.7408C6.24651 20.3452 4.77816 22.0616 3.54718 23.9408C2.11953 26.1117 0.841079 28.425 0.159467 30.9453C-0.0439998 31.5728 -0.0134798 32.241 0.0170402 32.8889C0.661351 32.5904 1.32262 32.0816 2.07205 32.2648C2.93 32.4887 3.43189 33.2993 3.73709 34.0727C4.36105 35.6941 4.50348 37.4444 4.64929 39.1574C4.62895 40.5854 4.73407 42.0236 4.53739 43.4449C4.46278 44.4048 4.39835 45.3749 4.14741 46.3077C3.67944 47.9393 3.35389 49.6217 3.30302 51.3245C3.24877 53.4852 4.09315 55.5543 5.19526 57.3759C6.45675 59.4212 8.08788 61.2122 9.83091 62.8607C13.0253 65.8254 16.6199 68.3287 20.3569 70.564C21.2454 71.0626 22.1067 71.6291 23.0427 72.0361C22.8188 71.6087 22.5136 71.2322 22.2525 70.8286C19.8686 67.2093 17.6678 63.4374 16.0909 59.3873C15.2329 57.1588 14.5513 54.842 14.3411 52.454C14.297 51.1413 14.2834 49.8252 14.3614 48.5091C14.5479 46.8504 14.9752 45.2257 15.5212 43.6518C16.8539 39.8595 18.8953 36.3691 21.086 33.0144C23.8972 28.8456 27.0476 24.9143 30.4353 21.2068C30.5506 21.1152 30.6523 20.9558 30.8185 20.9728H30.8219Z" fill="#CE1141"/>
<path d="M69.3007 57.013C64.9601 59.3467 60.2091 60.8426 55.37 61.7075C55.0343 61.755 54.6952 61.7584 54.3561 61.7618C51.3515 61.7754 48.3708 61.3615 45.4035 60.924C40.5475 60.1608 35.7287 59.1533 30.954 57.9831C30.9133 57.9526 30.832 57.8915 30.7947 57.861C30.754 46.9658 30.8082 36.0707 30.7675 25.1755C30.2487 25.759 29.8723 26.4442 29.445 27.092C28.5226 28.476 27.6681 29.904 26.8338 31.3422C24.5279 35.3889 22.5136 39.6323 21.2216 44.1199C20.6179 46.2399 20.1161 48.4278 20.1737 50.6496C20.1737 51.311 20.1466 51.986 20.3467 52.6271C20.9876 54.8794 22.3881 56.8298 24.0124 58.4817C25.6707 60.1302 27.5663 61.5243 29.5501 62.7556C33.2871 65.0656 37.3259 66.843 41.4495 68.3355C40.4898 68.634 39.4657 68.4101 38.4823 68.383C34.2095 67.9047 30.1266 66.4529 26.1183 64.9537C24.8263 64.4822 23.5648 63.9191 22.2592 63.4849C22.3305 63.7868 22.6289 63.9496 22.8357 64.1566C27.1085 67.7453 31.6357 71.0525 36.4815 73.8272C40.2728 75.9438 44.2845 77.8535 48.6183 78.4912C49.2457 78.5387 49.8696 78.6337 50.4902 78.7422C51.1074 78.8508 51.7381 78.8338 52.3587 78.9457C53.549 79.0305 54.7393 78.9797 55.9295 78.9932C56.6824 78.983 57.442 79.017 58.188 78.8813C60.0057 78.7253 61.8063 78.3487 63.546 77.806C63.1458 77.5177 62.688 77.2158 62.5931 76.69C62.3353 75.3943 62.8135 74.0985 63.3154 72.9215C64.0987 71.2289 65.2551 69.6788 66.7641 68.5662C67.3745 68.0981 68.107 67.8335 68.7683 67.44C70.0467 66.8023 71.3082 66.107 72.451 65.2454C73.5667 64.4483 74.4246 63.356 75.1673 62.2163C76.1914 60.6594 76.9781 58.9566 77.6869 57.2335C79.0569 53.8788 80.0403 50.385 80.9559 46.8844C80.983 46.7487 80.9966 46.6131 81 46.474C80.6778 46.7623 80.5456 47.1965 80.2845 47.5357C77.4936 51.5552 73.5667 54.6691 69.3007 57.0028V57.013Z" fill="#CE1141"/>
<path d="M36.2781 30.1041C36.9224 30.7147 37.6617 31.2235 38.2789 31.8612C38.3467 32.5633 38.2856 33.2757 38.306 33.9812C38.306 40.4226 38.2992 46.8641 38.3094 53.3021C41.0596 53.3462 43.8131 53.3157 46.5633 53.3157C47.2687 53.3428 48.0486 53.1224 48.4624 52.5152C48.8998 51.9114 48.9235 51.1346 48.91 50.4189C48.9032 44.0012 48.9134 37.5835 48.9032 31.1658C48.9337 30.2534 48.4251 29.3308 47.5807 28.9542C46.5905 28.5235 45.4917 28.6354 44.4439 28.6252C41.185 28.6354 37.9228 28.6049 34.6639 28.6388C35.115 29.212 35.7457 29.6055 36.2747 30.1007L36.2781 30.1041Z" fill="#CE1141"/>
</g>
<defs>
<clipPath id="clip0_66_1177">
<rect width="81" height="79" fill="white"/>
</clipPath>
</defs>
</svg>
