<svg width="418" height="110" viewBox="0 0 418 110" fill="none" xmlns="http://www.w3.org/2000/svg">
<g clip-path="url(#clip0_66_1182)">
<path d="M59.1536 71.688C57.2053 71.2148 54.7605 70.665 51.8955 70.3836C49.2978 80.0128 47.3687 88.1586 47.1204 92.647L47.0822 93.4143C46.9867 95.0639 47.1395 96.7903 48.7057 96.867C53.5858 96.4194 61.6366 79.0921 63.9477 74.4118L67.6054 78.2225C57.5491 100.639 52.2488 105.601 43.3958 106.419C39.5089 106.777 36.1759 103.043 36.5388 96.4578C36.577 95.6905 36.6152 95.0256 36.7489 94.2583C37.4461 89.1688 39.7668 80.0128 42.5554 69.7187C39.4325 69.5652 36.2141 69.757 32.9002 70.0511C31.907 70.1407 30.8279 70.243 29.7582 70.3453C28.2302 74.1944 19.3581 103.389 17.9829 107.442L17.324 107.506L8.86253 107.187C8.91028 106.419 13.5612 90.7161 19.0143 72.7494C11.3074 75.2046 4.81327 79.399 3.22795 85.6522C2.39709 88.7852 3.64816 94.4501 6.5323 94.2967L4.57452 99.9361C0.888166 99.6164 -0.573005 91.8926 0.229206 86.3683C2.28249 73.0818 10.7726 66.9565 21.7361 63.7724C27.8673 43.7852 33.9985 23.9002 34.6957 21.6624C35.1159 21.5089 40.4926 21.023 40.9032 20.9846C41.8965 20.8951 42.7942 21.0358 43.7778 21.0486C43.8447 21.266 43.9115 21.5857 43.8924 21.9054C43.8447 22.7877 34.2086 55.422 32.289 61.7135C35.0299 61.3555 37.7613 60.9974 40.5785 60.7417C42.0684 60.601 43.6346 60.5754 45.1244 60.4348C50.2528 42.1739 55.9925 23.4271 57.1194 19.5013L67.3571 18.8875C64.3202 29.0921 59.144 45.179 54.856 60.0895C59.8889 59.9616 64.3202 60.0895 67.7009 60L59.144 71.7008L59.1536 71.688Z" fill="#CE1141"/>
<path d="M73.7175 49.463C77.4421 44.0666 80.4312 44.8082 82.2553 44.463C82.7519 44.3735 83.2485 44.4885 83.7547 44.7187C84.9962 43.7213 86.0754 42.6471 87.4792 42.3786C93.2857 41.266 95.807 51.9949 95.8261 57.7622C95.8452 65.8185 93.7919 73.3888 90.7358 79.8466C91.3184 79.9489 91.9774 79.9361 92.7318 79.7955C97.7934 78.8236 101.174 72.1995 103.571 65.6394L107.487 69.0282C105.013 76.5729 98.3187 85.908 91.6813 87.174C90.0196 87.4937 88.3579 87.2635 86.9444 86.6625C82.2362 93.7724 76.4297 98.4655 71.7024 99.3735C66.8891 100.294 63.1455 97.0845 63.1168 87.8389C63.0882 76.6369 67.4431 58.6062 73.727 49.463H73.7175ZM77.2415 63.4911C75.0163 68.376 72.2181 78.0563 72.2277 83.6062C72.2372 88.7213 73.9085 90.6906 76.2292 90.243C78.3016 89.8466 80.8706 87.6215 83.2676 84.1049C79.0178 79.6931 76.5921 71.3428 77.2319 63.4911H77.2415ZM90.7645 58.8364C90.7645 56.4451 90.7454 51.4323 88.1764 51.931C85.1872 52.5064 84.1271 58.6957 84.1367 61.9566C84.1462 67.3914 84.8339 73.5806 87.0017 77.0845C89.2269 71.8671 90.7931 65.5883 90.774 58.8364H90.7645Z" fill="#CE1141"/>
<path d="M114.191 89.6164C115.452 82.8261 128.373 43.8491 127.179 40.8184C126.759 39.821 126.167 39.3862 125.422 39.5397C121.86 40.2686 115.089 53.5039 113.656 60.6522C111.593 70.9719 108.872 81.1125 106.226 91.2276C105.644 91.4578 104.985 91.5857 104.402 91.7008C103.657 91.8542 102.826 92.0205 102.081 91.9565C101.995 91.7519 96.8479 92.468 96.8479 92.1483C96.8479 91.2788 109.234 41.0742 110.037 37.9796L119.081 36.1509L119.272 38.6189C122.328 36.4706 124.133 34.3606 126.788 33.8235C131.849 32.8005 133.387 36.7264 134.103 42.353C136.72 37.8005 140.072 32.5448 144.637 31.6113C146.795 31.1765 149.297 31.9693 151.054 33.6829C153.232 35.422 154.263 38.798 154.311 43.1458C154.349 47.0588 153.566 51.7903 152.038 57.11C151.551 58.734 146.786 72.2251 146.824 76.7903C146.833 77.8773 147.091 78.376 147.75 78.2353C151.15 77.5448 159.64 61.3427 161.741 55.5883C162.066 54.8721 162.314 54.2711 162.639 53.555L166.583 56.8926C162.935 66.6624 151.666 87.0333 143.023 87.1484C139.785 87.1484 136.605 85.2941 136.538 78.2353C136.414 65.5243 145.716 47.4169 146.556 40.486C146.709 39.1432 146.117 38.0691 144.952 38.312C139.89 39.3351 136.128 45.9847 134.113 51.8287C133.625 53.3376 132.327 56.6496 131.849 58.1714C128.87 67.6982 126.959 76.1509 124.486 87.532L114.201 89.6164H114.191Z" fill="#CE1141"/>
<path d="M201.613 46.4578L205.5 49.8849C199.502 60.8824 189.341 78.8491 174.004 79.3606C166.373 79.6675 161.913 71.2276 161.932 62.289C161.97 43.8875 172.8 24.7059 187.316 22.0588C193.457 20.9335 195.931 25.601 195.921 31.9182C195.902 42.1611 189.226 56.867 180.44 58.4783C179.361 58.6701 172.896 58.8747 172.313 56.4834C171.979 58.4015 171.979 58.9386 171.969 60.8952C171.96 66.6624 174.271 72.5576 179.409 71.6241C187.622 70.1279 193.62 59.4501 198.863 51.2021L201.613 46.4578ZM175.159 49.4374C180.221 48.5166 190.115 36.688 190.134 29.6164C190.134 28.6317 189.637 27.9668 188.806 28.1202C182.914 29.1944 175.255 41.9182 174.08 49.0921C174.328 49.3734 174.739 49.5141 175.159 49.4374Z" fill="#CE1141"/>
<path d="M234.351 54.2583C233.558 56.7775 232.842 59.3862 232.126 61.9949C238.954 55.7417 245.066 48.2736 249.469 39.1176L252.945 43.0562C247.349 53.9258 238.629 63.6189 229.709 70.7417C224.104 89.7698 216.884 107.097 199.464 109.719C194.078 110.537 186.151 109.987 186.342 100.818C186.657 85.6394 201.346 82.9795 219.968 70.4731C220.933 67.711 221.897 64.9488 222.623 62.1227L222.891 61.3171L223.511 59.156C223.339 59.2839 223.177 59.5396 223.005 59.7826C219.758 64.6291 215.967 72.0588 210.991 72.8133C202.778 74.0537 199.369 67.1611 199.56 57.7749C199.894 41.9309 210.447 19.2071 225.383 16.9565C228.535 16.4833 231.171 17.0588 233.272 19.2455L234.599 15.1278L246.556 12.7749C246.527 13.9769 241.313 30.1151 240.167 33.555C238.562 38.913 236.595 46.1764 234.36 54.2583H234.351ZM191.891 99.6547C191.805 99.8849 191.881 100.205 191.872 100.422V100.639C192.206 104.182 193.992 105.767 195.902 105.473C206.35 103.9 212.662 90.9591 217.667 77.0332C202.587 86.2787 192.111 89.0665 191.891 99.6547ZM230.177 28.3248C230.244 25.2685 229.203 23.4654 226.72 23.8363C223.072 24.3862 217.189 32.9028 213.341 42.7365C212.643 44.5908 209.186 55.78 209.052 61.7903C209.005 64.0793 209.463 65.6521 210.877 65.4348C216.769 64.5396 229.958 38.8107 230.177 28.3248Z" fill="#CE1141"/>
<path d="M270.622 29.7059C270.212 39.7826 262.189 52.6087 262.037 56.5474C261.989 57.7494 261.846 59.1816 262.753 59.1816L263.087 59.1433C263.335 59.1177 263.593 58.977 263.842 58.8364L264.606 58.3121C269.123 54.7315 274.901 42.3786 277.298 35.9975L281.022 39.7059C278.492 47.3018 271.205 64.4118 260.881 66.7136C257.137 67.4809 252.372 67.0589 252.716 58.6318C253.031 50.9591 260.155 37.8005 260.404 31.5601C260.509 29.041 260.795 28.0307 259.62 26.5346L253.184 42.9924L249.459 39.2839C249.851 37.8261 255.982 22.711 256.851 21.5218C256.918 19.9872 255.514 19.821 255.667 16.0998C255.905 10.1918 261.32 0.613836 266.296 0.0256004C268.454 -0.230154 269.514 1.93097 269.409 4.56524C269.209 9.48852 266.821 13.4783 264.434 17.5832C267.184 19.0026 270.995 22.4809 270.622 29.7187V29.7059Z" fill="#CE1141"/>
<path d="M287.526 13.0946C291.528 8.05628 294.431 9.11766 296.245 8.9642C296.742 8.92584 297.229 9.10487 297.697 9.3862C298.986 8.51663 300.113 7.54477 301.517 7.41689C307.304 6.91817 309.119 18.0179 308.775 23.8363C308.298 31.9565 305.795 39.3734 302.386 45.5627C302.949 45.7289 303.608 45.7928 304.353 45.7289C309.396 45.2941 313.149 38.977 315.909 32.6215L319.548 36.4578C316.644 43.798 309.463 52.4936 302.844 53.0563C301.192 53.1969 299.569 52.7877 298.213 52.0333C293.122 58.6957 287.125 62.8005 282.407 63.2097C277.613 63.6189 274.118 59.9872 274.672 50.6522C275.34 39.3478 280.755 21.6368 287.516 13.0946H287.526ZM290.124 27.6215C287.622 32.3146 284.269 41.7647 283.935 47.3657C283.63 52.5192 285.148 54.6931 287.459 54.4885C289.532 54.3095 292.196 52.3402 294.775 49.0665C290.869 44.156 288.997 35.4732 290.114 27.6215H290.124ZM303.733 24.3862C303.876 21.9693 304.172 16.9182 301.612 17.1356C298.633 17.3913 297.2 23.5166 297.009 26.8031C296.685 32.289 296.971 38.5934 298.881 42.3657C301.402 37.353 303.331 31.1765 303.733 24.3734V24.3862Z" fill="#CE1141"/>
<path d="M364.07 38.8619C368.358 38.7085 370.354 33.6957 372.293 30.3453L375.722 34.3862C372.818 39.4246 368.788 46.0358 362.772 46.2532C359.553 46.3683 358.675 44.2072 357.089 42.6215C353.67 48.8875 348.494 60.1407 342.229 60.3709C336.537 60.5755 336.213 50.2942 336.451 44.6931C332.946 49.9745 328.477 59.7826 322.957 59.9745C318.669 60.1279 312.824 57.4936 313.56 49.0282C314.343 40.1279 319.385 15.3965 322.527 5.74173L333.233 5.4604L327.828 27.7878C326.29 34.0921 323.444 45.0384 322.948 50.6522C322.795 52.4169 322.852 53.619 323.31 54.041C323.473 54.041 323.645 54.041 323.807 54.0282C327.436 53.9003 337.378 31.2916 339.823 26.931L347.978 26.6369C346.575 32.3913 346.049 37.4425 345.524 43.3888C345.39 44.9233 344.636 48.9003 346.364 48.8363C349 48.7468 353.718 39.9105 354.186 38.3632C354.644 36.9182 351.665 33.4144 352.362 25.3837C353.317 14.5013 359.458 2.55759 368.444 2.22511C371.08 2.1356 371.987 5.81846 371.73 8.78521C371.243 14.3862 363.574 30.5627 360.862 35.3709C361.578 36.5474 361.864 38.9514 364.089 38.8747L364.07 38.8619ZM367.203 9.59084C364.472 12.6471 361.053 21.6497 360.594 25.9463C362.6 21.8159 366.324 14.0154 367.203 9.59084Z" fill="#CE1141"/>
<path d="M362.733 56.9182C362.982 54.8338 380.019 9.93612 382.101 4.13049L391.775 4.29673L389.073 12.6215C392.616 9.04098 396.512 4.59085 400.934 4.66758C407.247 4.76988 409.682 9.88497 408.784 17.4681C408.316 21.4323 406.941 26.1382 404.802 31.0614C404.124 32.596 397.802 45.1535 397.257 49.7827C397.123 50.8824 397.295 51.5474 397.954 51.5602C401.316 51.6113 410.751 38.44 413.607 33.0947C413.932 32.4425 414.333 31.7903 414.648 31.2405L418.01 35.486C413.244 44.5525 400.523 61.1893 392.272 59.3991C389.149 58.6829 386.322 56.2149 387.182 48.9515C388.7 36.087 399.979 19.8594 401.679 13.0563C401.994 11.7392 401.564 10.5244 400.418 10.4988C394.593 10.3965 387.077 22.6088 384.431 26.9822C381.69 31.4579 374.776 51.0615 372.331 57.1868L362.752 56.9182H362.733Z" fill="#CE1141"/>
</g>
<defs>
<clipPath id="clip0_66_1182">
<rect width="418" height="110" fill="white"/>
</clipPath>
</defs>
</svg>
